<?xml version="1.0" encoding="UTF-8"?>
<!DOCTYPE svg PUBLIC "-//W3C//DTD SVG 1.1//EN" "http://www.w3.org/Graphics/SVG/1.1/DTD/svg11.dtd">
<!-- Creator: CorelDRAW -->
<svg xmlns="http://www.w3.org/2000/svg" xml:space="preserve" width="8.5in" height="11in" version="1.1" style="shape-rendering:geometricPrecision; text-rendering:geometricPrecision; image-rendering:optimizeQuality; fill-rule:evenodd; clip-rule:evenodd"
viewBox="0 0 8500 11000"
 xmlns:xlink="http://www.w3.org/1999/xlink">
 <defs>
  <style type="text/css">
   <![CDATA[
    .fil4 {fill:none}
    .fil1 {fill:#09821A}
    .fil3 {fill:#C5D85A}
    .fil0 {fill:#060947;fill-rule:nonzero}
    .fil2 {fill:#C5D85A;fill-rule:nonzero}
   ]]>
  </style>
 </defs>
 <g id="Layer_x0020_1">
  <metadata id="CorelCorpID_0Corel-Layer"/>
  <g id="Universitas_x0020_Islam_x0020_Negeri_x0020_Sultan_x0020_Syarif_x0020_Kasim_x0020_Riau.cdr">
   <g>
    <g>
     <polygon class="fil1" points="7313,2102 4996,2102 5307,2413 7313,2413 "/>
     <path class="fil1" d="M4250 833l1153 1153 -523 0 -630 -630 -1057 1057 -341 0 0 796 -490 394 -663 0 0 -1501 1282 0 1269 -1269zm-2170 1580l382 0 0 695 -382 245 0 -940z"/>
     <polygon class="fil1" points="7313,2102 4996,2102 5307,2413 7313,2413 "/>
     <polygon class="fil1" points="1187,2102 1187,4419 1499,4108 1499,2102 "/>
     <g>
      <path class="fil1" d="M-81 5164l1153 -1153 0 523 -630 630 1057 1057 0 342 795 0 395 490 0 662 -1502 0 0 -1282 -1268 -1269zm1580 2170l0 -382 695 0 245 382 -940 0z"/>
      <polygon class="fil1" points="1187,8227 3504,8227 3193,7916 1187,7916 "/>
     </g>
     <path class="fil1" d="M8581 5164l-1153 1153 0 -522 630 -631 -1057 -1056 0 -342 -795 0 -395 -490 0 -662 1502 0 0 1282 1268 1268zm-1580 -2170l0 382 -695 0 -245 -382 940 0z"/>
     <g>
      <path class="fil1" d="M4250 9495l-1153 -1153 523 0 630 631 1057 -1057 341 0 0 -796 490 -395 663 0 0 1502 -1282 0 -1269 1268zm2170 -1579l-382 0 0 -696 382 -245 0 941z"/>
      <polygon class="fil1" points="7313,8227 7313,5910 7001,6221 7001,8227 "/>
     </g>
     <g>
      <polygon class="fil1" points="3740,2151 4074,1816 4074,3309 4426,3309 4426,1816 4761,2151 4761,3306 4431,3608 4069,3608 3740,3306 "/>
      <path class="fil1" d="M5451 2614l-341 0 0 280 341 0 0 -280zm1233 1461l296 295 -971 0 0 -295 675 0zm-1574 -411l0 -240 291 0 0 342 153 0 0 -342 338 434 0 512 -338 0 0 -356 -153 0 -291 -350zm341 -630l-341 0 0 280 341 0 0 -280z"/>
      <path class="fil1" d="M1712 3951l0 341 280 0 0 -341 -280 0zm1461 -1233l296 -296 0 971 -296 0 0 -675zm-411 1574l-240 0 0 -292 342 0 0 -152 -342 0 434 -338 513 0 0 338 -357 0 0 152 -350 292zm-630 -341l0 341 280 0 0 -341 -280 0z"/>
     </g>
     <polygon class="fil1" points="4760,8178 4426,8513 4426,7020 4074,7020 4074,8513 3739,8178 3739,7023 4069,6720 4430,6720 4760,7023 "/>
     <polygon class="fil1" points="1236,5675 902,5340 2395,5340 2395,4989 902,4989 1236,4654 2391,4654 2694,4984 2694,5345 2391,5675 "/>
     <polygon class="fil1" points="7264,5674 7599,5340 6106,5340 6106,4988 7599,4988 7264,4653 6109,4653 5807,4983 5807,5344 6109,5674 "/>
     <path class="fil1" d="M3049 7715l341 0 0 -280 -341 0 0 280zm-1234 -1461l-295 -296 970 0 0 296 -675 0zm1575 411l0 240 -292 0 0 -342 -152 0 0 342 -338 -434 0 -513 338 0 0 357 152 0 292 350zm-341 630l341 0 0 -280 -341 0 0 280z"/>
     <path class="fil1" d="M6788 6377l0 -340 -280 0 0 340 280 0zm-1461 1234l-296 296 0 -971 296 0 0 675zm411 -1574l240 0 0 291 -342 0 0 153 342 0 -434 337 -513 0 0 -337 357 0 0 -153 350 -291zm630 340l0 -340 -280 0 0 340 280 0z"/>
    </g>
    <g>
     <g>
      <path class="fil2" d="M3815 4709l1 0c291,-292 603,-509 871,-625 275,-118 506,-130 629,-7l0 0 0 0c123,123 111,355 -7,629 -115,268 -333,580 -624,872l0 0 -1 0c-291,292 -603,509 -871,625 -275,118 -506,130 -629,7l0 0 0 0c-123,-123 -111,-355 7,-629 115,-268 333,-580 624,-872l0 0zm35 34l-1 0 0 0c-287,288 -501,594 -614,857 -110,256 -125,468 -17,576l0 0 0 0c107,107 320,93 576,-18 263,-113 569,-326 856,-614l1 0 0 0c287,-288 501,-594 614,-857 110,-256 125,-468 17,-576l0 0 0 0c-107,-107 -320,-93 -576,17 -263,114 -569,327 -856,615z"/>
      <path class="fil2" d="M3884 4778l0 0c247,-247 510,-430 736,-528 232,-99 426,-109 529,-6l0 0 0 0c104,103 94,298 -6,529 -97,226 -281,490 -527,736l0 0 0 0c-247,247 -510,430 -736,528 -232,99 -426,109 -529,6l0 0 0 0c-104,-103 -94,-298 6,-529 97,-227 281,-490 527,-736l0 0zm26 25l0 0 0 0c-243,244 -424,503 -520,725 -94,217 -106,398 -14,489l0 0 0 0c92,92 272,80 489,-14 223,-95 482,-276 725,-519l0 0 0 0c243,-244 424,-503 520,-725 94,-217 106,-398 14,-489l0 0 0 0c-92,-92 -272,-80 -489,14 -223,95 -482,276 -725,519z"/>
      <path class="fil2" d="M3945 4838l0 0c207,-206 428,-360 617,-442 194,-83 356,-92 442,-6 85,86 77,248 -6,441 -82,190 -236,411 -443,617l0 0 0 1c-207,206 -428,360 -617,442 -194,83 -356,92 -442,6 -85,-86 -77,-248 6,-441 82,-190 236,-411 443,-618l0 0zm17 17l0 0 0 0c-205,205 -357,423 -438,610 -79,184 -89,337 -11,415 78,78 231,68 415,-11 187,-81 405,-233 610,-438l0 0 0 0c205,-204 357,-422 438,-609 79,-184 89,-337 11,-415 -78,-78 -231,-68 -415,11 -187,81 -405,233 -610,437z"/>
      <path class="fil2" d="M4010 4904c164,-164 339,-286 489,-351 152,-65 280,-72 347,-5 67,67 60,194 -6,346 -65,150 -187,325 -350,489 -164,164 -339,286 -489,351 -152,65 -280,72 -347,5 -67,-67 -60,-194 6,-346 65,-150 187,-325 350,-489zm494 -340c-149,65 -322,186 -485,348 -163,163 -284,337 -348,486 -63,147 -71,269 -8,333 63,63 186,55 333,-9 149,-64 322,-185 485,-347 163,-163 284,-337 348,-486 63,-147 71,-270 8,-333 -63,-63 -186,-55 -333,8z"/>
      <path class="fil2" d="M4063 4956c128,-127 264,-222 381,-273 119,-51 218,-56 271,-4 52,52 46,151 -5,270 -50,117 -145,254 -273,381 -128,128 -264,223 -381,274 -119,51 -218,56 -271,4 -52,-52 -46,-152 5,-270 50,-117 145,-254 273,-382zm385 -264c-116,50 -251,144 -378,271 -127,127 -222,263 -272,379 -49,115 -55,210 -6,259 49,49 145,43 260,-6 116,-50 251,-144 378,-271 127,-127 222,-263 272,-379 49,-115 55,-210 6,-259 -49,-50 -145,-44 -260,6z"/>
      <path class="fil2" d="M4124 5017c86,-87 179,-151 258,-186 81,-34 148,-38 183,-3 35,36 32,103 -3,183 -34,80 -99,172 -186,259 -86,87 -179,151 -258,185 -81,35 -148,39 -183,4 -35,-36 -32,-103 3,-183 34,-80 99,-172 186,-259zm260 -181c-79,34 -171,98 -257,184 -86,87 -151,179 -185,258 -33,78 -37,143 -4,177 34,34 99,30 178,-4 79,-34 171,-98 257,-185 86,-86 151,-178 185,-257 33,-78 37,-144 4,-177 -34,-34 -99,-30 -178,4z"/>
      <path class="fil2" d="M4166 5060c57,-57 118,-100 171,-122 53,-23 97,-25 120,-2 24,23 21,68 -1,121 -23,52 -65,113 -122,170 -57,57 -118,99 -171,122 -53,23 -97,25 -120,2 -24,-24 -21,-68 1,-121 23,-52 65,-113 122,-170zm172 -118c-51,23 -112,65 -168,121 -57,57 -99,117 -121,169 -22,51 -25,94 -3,115 22,22 64,20 116,-2 51,-23 112,-65 168,-121 57,-57 99,-117 121,-169 22,-51 25,-94 3,-116 -22,-21 -64,-19 -116,3z"/>
      <path class="fil2" d="M4202 5095c32,-33 68,-57 98,-70 30,-13 56,-15 70,-1 13,13 12,39 -1,70 -13,30 -38,65 -71,98 -32,33 -68,57 -98,70 -30,13 -56,15 -70,1 -13,-14 -12,-39 1,-70 13,-30 38,-65 71,-98zm99 -67c-30,13 -64,37 -97,70 -32,32 -56,67 -69,97 -13,29 -14,53 -2,65 12,13 37,11 66,-1 30,-13 64,-37 97,-70 32,-32 56,-67 69,-97 13,-29 14,-53 2,-66 -12,-12 -37,-10 -66,2z"/>
     </g>
     <g>
      <path class="fil2" d="M4685 4709l-1 0c-291,-292 -603,-509 -871,-625 -275,-118 -506,-130 -629,-7l0 0 0 0c-123,123 -111,355 7,629 115,268 333,580 624,872l0 0 1 0c291,292 603,509 871,625 275,118 506,130 629,7l0 0 0 0c123,-123 111,-355 -7,-629 -115,-268 -333,-580 -624,-872l0 0zm-35 34l1 0 0 0c287,288 501,594 614,857 110,256 125,468 17,576l0 0 0 0c-107,107 -320,93 -576,-18 -263,-113 -569,-326 -856,-614l-1 0 0 0c-287,-288 -501,-594 -614,-857 -110,-256 -125,-468 -17,-576l0 0 0 0c107,-107 320,-93 576,17 263,114 569,327 856,615z"/>
      <path class="fil2" d="M4616 4778l0 0c-247,-247 -510,-430 -736,-528 -232,-99 -426,-109 -529,-6l0 0 0 0c-104,103 -94,298 6,529 97,226 281,490 527,736l0 0 0 0c247,247 510,430 736,528 232,99 426,109 529,6l0 0 0 0c104,-103 94,-298 -6,-529 -97,-227 -281,-490 -527,-736l0 0zm-26 25l0 0 0 0c243,244 424,503 520,725 94,217 106,398 14,489l0 0 0 0c-92,92 -272,80 -489,-14 -223,-95 -482,-276 -725,-519l0 0 0 0c-243,-244 -424,-503 -520,-725 -94,-217 -106,-398 -14,-489l0 0 0 0c92,-92 272,-80 489,14 223,95 482,276 725,519z"/>
      <path class="fil2" d="M4555 4838l0 0c-207,-206 -428,-360 -617,-442 -194,-83 -356,-92 -442,-6 -85,86 -77,248 6,441 82,190 236,411 443,617l0 0 0 1c207,206 428,360 617,442 194,83 356,92 442,6 85,-86 77,-248 -6,-441 -82,-190 -236,-411 -443,-618l0 0zm-17 17l0 0 0 0c205,205 357,423 438,610 79,184 89,337 11,415 -78,78 -231,68 -415,-11 -187,-81 -405,-233 -610,-438l0 0 0 0c-205,-204 -357,-422 -438,-609 -79,-184 -89,-337 -11,-415 78,-78 231,-68 415,11 187,81 405,233 610,437z"/>
      <path class="fil2" d="M4490 4904c-164,-164 -339,-286 -489,-351 -152,-65 -280,-72 -347,-5 -67,67 -60,194 6,346 65,150 187,325 350,489 164,164 339,286 489,351 152,65 280,72 347,5 67,-67 60,-194 -6,-346 -65,-150 -187,-325 -350,-489zm-494 -340c149,65 322,186 485,348 163,163 284,337 348,486 63,147 71,269 8,333 -63,63 -186,55 -333,-9 -149,-64 -322,-185 -485,-347 -163,-163 -284,-337 -348,-486 -63,-147 -71,-270 -8,-333 63,-63 186,-55 333,8z"/>
      <path class="fil2" d="M4437 4956c-128,-127 -264,-222 -381,-273 -119,-51 -218,-56 -271,-4 -52,52 -46,151 5,270 50,117 145,254 273,381 128,128 264,223 381,274 119,51 218,56 271,4 52,-52 46,-152 -5,-270 -50,-117 -145,-254 -273,-382zm-385 -264c116,50 251,144 378,271 127,127 222,263 272,379 49,115 55,210 6,259 -49,49 -145,43 -260,-6 -116,-50 -251,-144 -378,-271 -127,-127 -222,-263 -272,-379 -49,-115 -55,-210 -6,-259 49,-50 145,-44 260,6z"/>
      <path class="fil2" d="M4376 5017c-86,-87 -179,-151 -258,-186 -81,-34 -148,-38 -183,-3 -35,36 -32,103 3,183 34,80 99,172 186,259 86,87 179,151 258,185 81,35 148,39 183,4 35,-36 32,-103 -3,-183 -34,-80 -99,-172 -186,-259zm-260 -181c79,34 171,98 257,184 86,87 151,179 185,258 33,78 37,143 4,177 -34,34 -99,30 -178,-4 -79,-34 -171,-98 -257,-185 -86,-86 -151,-178 -185,-257 -33,-78 -37,-144 -4,-177 34,-34 99,-30 178,4z"/>
      <path class="fil2" d="M4334 5060c-57,-57 -118,-100 -171,-122 -53,-23 -97,-25 -120,-2 -24,23 -21,68 1,121 23,52 65,113 122,170 57,57 118,99 171,122 53,23 97,25 120,2 24,-24 21,-68 -1,-121 -23,-52 -65,-113 -122,-170zm-172 -118c51,23 112,65 168,121 57,57 99,117 121,169 22,51 25,94 3,115 -22,22 -64,20 -116,-2 -51,-23 -112,-65 -168,-121 -57,-57 -99,-117 -121,-169 -22,-51 -25,-94 -3,-116 22,-21 64,-19 116,3z"/>
      <path class="fil2" d="M4298 5095c-32,-33 -68,-57 -98,-70 -30,-13 -56,-15 -70,-1 -13,13 -12,39 1,70 13,30 38,65 71,98 32,33 68,57 98,70 30,13 56,15 70,1 13,-14 12,-39 -1,-70 -13,-30 -38,-65 -71,-98zm-99 -67c30,13 64,37 97,70 32,32 56,67 69,97 13,29 14,53 2,65 -12,13 -37,11 -66,-1 -30,-13 -64,-37 -97,-70 -32,-32 -56,-67 -69,-97 -13,-29 -14,-53 -2,-66 12,-12 37,-10 66,2z"/>
     </g>
     <path class="fil3" d="M4272 3903l0 2480c36,10 62,43 62,82 0,46 -37,84 -84,84 -47,0 -84,-38 -84,-84 0,-39 26,-72 62,-82l0 -2480c-36,-9 -62,-42 -62,-81 0,-46 37,-84 84,-84 47,0 84,38 84,84 0,39 -26,72 -62,81z"/>
    </g>
   </g>
   <polygon class="fil4" points="-750,500 9250,500 9250,10500 -750,10500 "/>
  </g>
 </g>
</svg>
